<?xml version="1.0" encoding="utf-8"?>
<!-- Generator: Adobe Illustrator 24.1.1, SVG Export Plug-In . SVG Version: 6.00 Build 0)  -->
<svg version="1.1" xmlns="http://www.w3.org/2000/svg" xmlns:xlink="http://www.w3.org/1999/xlink" x="0px" y="0px"
	 viewBox="0 0 2000 2000" style="enable-background:new 0 0 2000 2000;" xml:space="preserve">
<style type="text/css">
	.st0{fill:#6762A6;}
	.st1{fill:#FFFFFF;}
</style>
<g id="katman_2">
	<path class="st0" d="M1492.48,1769H507.52C354.8,1769,231,1645.2,231,1492.48V507.52C231,354.8,354.8,231,507.52,231h984.96
		C1645.2,231,1769,354.8,1769,507.52v984.96C1769,1645.2,1645.2,1769,1492.48,1769z"/>
</g>
<g id="katman_3">
	<g>
		<path class="st1" d="M1109.45,993.05V683.52c0-73.78,59.84-133.57,133.62-133.52h0v683.53c0,119.24-96.66,215.9-215.9,215.9h0
			c-100.68,0-175.18-18.34-223.49-55c-48.31-36.68-72.48-92.34-72.48-167.02c0-43.61,12-82.39,35.98-116.35
			c23.98-33.96,57.92-60.57,101.83-79.83L651.03,708.88h118.01c35.07,0,67.67,18.09,86.22,47.85l147.1,235.98L1109.45,993.05z
			 M1347.77,975.53l-312.47,144.86c-49.69,0-86.36,8.28-110.03,24.86c-23.67,16.56-35.5,42.61-35.5,78.12
			c0,35.16,12.1,60.18,36.26,75.07c24.17,14.87,61.61,22.32,112.31,22.32l309.43-144.86V975.53z"/>
	</g>
</g>
</svg>
